<?xml version="1.0" encoding="utf-8"?>
<!-- Generator: Adobe Illustrator 16.0.0, SVG Export Plug-In . SVG Version: 6.00 Build 0)  -->
<!DOCTYPE svg PUBLIC "-//W3C//DTD SVG 1.1//EN" "http://www.w3.org/Graphics/SVG/1.1/DTD/svg11.dtd">
<svg version="1.1" id="Calque_1" xmlns="http://www.w3.org/2000/svg" xmlns:xlink="http://www.w3.org/1999/xlink" x="0px" y="0px"
	 width="40px" height="40px" viewBox="0 0 40 40" enable-background="new 0 0 40 40" xml:space="preserve">
<g>
	<g>
		<path fill="#CDEDF1" d="M29.559,35.989c1.594-0.49,2.656-3.393,2.902-4.946c0.572-4.252-0.569-7.592-2.453-11.284
			c-2.044-4.006-1.367-9.561,3.475-8.422c1.391,0.327,2.585,2.499,2.589,3.316c0.009,2.285-2.592,1.246-3.12,1.992
			c-0.613,0.865-0.364,1.605,0.409,4.667c1.261,4.991,2.1,6.716,0.735,11.406c-0.726,2.495-1.962,5.11-4.578,5.847
			c-1.776,0.5-5.684,0.368-5.684,0.368s-6.657-0.044-11.119-0.07c-1.882-0.012-1.225-1.327-0.042-2.056
			c1.137-0.7,2.912-0.596,4.62-0.491c-1.308-1.227-2.657-1.594-3.148-3.639c-0.245-1.062-0.327-1.553-0.654-3.843
			c-0.164,3.025-0.49,4.456-1.39,6.255c-0.833,1.668,0.171,1.806-1.186,3.148c-0.77,0.762-2.657,1.554-3.802,0
			c-0.759-1.03,0.892-1.688,1.717-1.963c0.736-0.245,0.94-4.456,0.777-5.928c-0.572-4.088-2.023-5.031-2.657-9.935
			c-0.45-3.475,3.914-5.955,0.736-7.032C5.273,12.563,4.013,11.73,4.78,9.457c0.792-2.349,0.802-4.121,2.824-4.988
			c1.145-0.49,1.513-0.899,1.881-2.29c0.281-1.061,0.55-2.861,1.881-1.385c2.208,2.448,0.846,2.11,2.615,3.683
			c4.13,3.672,2.677,4.481,3.332,6.28c1.293,3.556,3.415,3.77,7.895,8.772c3.839,4.287,4.719,5.219,4.678,10.574
			C29.871,31.901,29.729,32.266,29.559,35.989"/>
	</g>
</g>
</svg>
